# xmcd
#
# Track frame offsets:
#	150
#	14579
#	30193
#	45668
#	63584
#	84478
#	101671
#	114678
#	129307
#	145090
#	167101
#	184766
#	204735
#	225535
#	243845
#	260161
#	280767
#	296121
#	313483
#	327475
#	343485
#
# Disc length: 4788 seconds
#
# Revision: 1
# Processed by: cddbd v1.5.1PL2 Copyright (c) Steve Scherf et al.
# Submitted via: audiograbber 1.83.01
#
DISCID=4512b215
DTITLE=Various Artist - Hit Explosion 2005-11 CD1
DYEAR=2005
DGENRE=Top 40
TTITLE0=John Marks - Do It Again
TTITLE1=Ernesto vs Bastian - Darkside Of The Moon
TTITLE2=Bob Sinclar - Love Generation
TTITLE3=Gavin DeGraw - Follow Through
TTITLE4=Robbie Williams - Tripping
TTITLE5=Jamie Cullum - Get Your Way
TTITLE6=Tatu - All About Us
TTITLE7=Sunclub - Put Em Up
TTITLE8=Tom Novy - Your Body
TTITLE9=Prodigy ft Audio Bully's - Out Of Space
TTITLE10=Nickelback - Photograph
TTITLE11=Simon Webbe - Lay Your Hands
TTITLE12=Coldplay - Fix You
TTITLE13=DNX vs The Voice - In The Ghetto
TTITLE14=Sugababes - Push The Button
TTITLE15=Faith Evans - Mezmerized
TTITLE16=Faithless - Insomnia 2005
TTITLE17=Ricky Martin - I Don't Care
TTITLE18=Jan Smit - Laura
TTITLE19=Frans Bauer - He Lekker Ding
TTITLE20=Gebroeders Ko - Trampoline
EXTD=
EXTT0=
EXTT1=
EXTT2=
EXTT3=
EXTT4=
EXTT5=
EXTT6=
EXTT7=
EXTT8=
EXTT9=
EXTT10=
EXTT11=
EXTT12=
EXTT13=
EXTT14=
EXTT15=
EXTT16=
EXTT17=
EXTT18=
EXTT19=
EXTT20=
PLAYORDER=
